<svg width="98" height="98" viewBox="0 0 98 98" fill="none" xmlns="http://www.w3.org/2000/svg">
<path d="M79.5 20H86V72H57V77H41V72H12V20H18.5" stroke="#3E3E3E"/>
<path d="M18.5 63.4939V13.5035C25.092 13.557 30.0625 13.9203 34.6307 14.927C39.3086 15.9578 43.5868 17.6681 48.7639 20.4408L49.0011 20.5678L49.2377 20.4399C53.9376 17.9001 57.8729 16.1942 62.4984 15.1073C67.0257 14.0435 72.2366 13.5674 79.5 13.5037V63.4808C72.3162 63.2228 67.1346 63.5605 62.5349 64.5372C57.8934 65.5228 53.8691 67.1542 49.0053 69.4447C44.4436 67.1926 40.5274 65.6558 35.8655 64.7084C31.2411 63.7686 25.904 63.4128 18.5 63.4939Z" stroke="#899989"/>
<line x1="24" y1="25.5" x2="41" y2="25.5" stroke="#899989"/>
<line x1="56" y1="25.5" x2="73" y2="25.5" stroke="#899989"/>
<line x1="24" y1="38.5" x2="41" y2="38.5" stroke="#899989"/>
<line x1="56" y1="38.5" x2="73" y2="38.5" stroke="#899989"/>
<line x1="24" y1="51.5" x2="41" y2="51.5" stroke="#899989"/>
<line x1="56" y1="51.5" x2="73" y2="51.5" stroke="#899989"/>
</svg>
