<svg width="170" height="90" viewBox="0 0 170 90" fill="none" xmlns="http://www.w3.org/2000/svg">
<path d="M44.593 71.8308L53.6896 18.7676H88.3737L97.4702 71.8308H44.593Z" stroke="#3E3E3E"/>
<path d="M81.0689 19.0403C81.0689 13.4952 76.5737 9 71.0286 9C65.4835 9 60.9883 13.4952 60.9883 19.0403" stroke="#3E3E3E"/>
<path d="M86.8996 71.8314L92.3543 40.0127H113.078L118.532 71.8314H86.8996Z" fill="white" stroke="#3E3E3E"/>
<path d="M108.809 39.9816C108.809 36.6155 106.08 33.8867 102.714 33.8867C99.3479 33.8867 96.6191 36.6155 96.6191 39.9816" stroke="#3E3E3E"/>
<circle cx="65.5685" cy="67.0685" r="14.4318" fill="white" stroke="#3E3E3E"/>
<path d="M67.8086 66.3223C67.8089 62.3405 73.7828 62.3405 73.7813 66.3223" stroke="#3E3E3E"/>
<path d="M57.3555 66.3223C57.3558 62.3405 63.3297 62.3405 63.3282 66.3223" stroke="#3E3E3E"/>
<path d="M71.541 70.8019C69.3012 74.5348 62.2086 74.5348 59.5956 70.8019L71.541 70.8019Z" fill="white" stroke="#3E3E3E"/>
<circle cx="111.194" cy="67.8982" r="13.6023" fill="white" stroke="#3E3E3E"/>
<path d="M113.311 67.1935C113.311 63.4329 118.953 63.4329 118.951 67.1935" stroke="#3E3E3E"/>
<path d="M103.439 67.1935C103.44 63.4329 109.082 63.4329 109.08 67.1935" stroke="#3E3E3E"/>
<path d="M116.836 71.4242C114.721 74.9498 108.022 74.9497 105.554 71.4242" stroke="#3E3E3E"/>
<circle cx="88.381" cy="71.631" r="9.86932" fill="#899989" stroke="#3E3E3E"/>
<path d="M89.9375 71.1129C89.9377 68.3478 94.0862 68.3478 94.0852 71.1129" stroke="#3E3E3E"/>
<path d="M82.6777 71.1129C82.6779 68.3478 86.8265 68.3478 86.8255 71.1129" stroke="#3E3E3E"/>
<path d="M92.5273 74.2237C90.9719 76.8161 86.0465 76.816 84.2319 74.2237" stroke="#3E3E3E"/>
</svg>
