<svg width="170" height="90" viewBox="0 0 170 90" fill="none" xmlns="http://www.w3.org/2000/svg">
<path d="M60.5153 67.4717C78.9708 58.1616 91.1022 56.6499 111.678 67.5885M120.127 45.4997C120.127 63.9855 104.914 78.9712 86.1486 78.9712M120.127 45.4997C120.127 27.014 104.914 12.0283 86.1486 12.0283M120.127 45.4997H52.1701M86.1486 78.9712C67.3828 78.9712 52.1701 63.9855 52.1701 45.4997M86.1486 78.9712C61.6524 71.9655 63.2328 18.2556 86.1486 12.0283M86.1486 78.9712C110.645 71.9655 109.064 18.2556 86.1486 12.0283M86.1486 78.9712V12.0283M52.1701 45.4997C52.1701 27.014 67.3828 12.0283 86.1486 12.0283M60.6728 23.3509C79.1283 32.661 90.9757 34.2087 111.552 23.2702" stroke="#3E3E3E"/>
<path d="M103.708 80.4998L108.27 53.8887H125.571L130.133 80.4998H103.708Z" fill="#899989" stroke="#3E3E3E"/>
<path d="M122.047 53.7831C122.047 50.9511 119.751 48.6553 116.919 48.6553C114.087 48.6553 111.791 50.9511 111.791 53.7831" stroke="#3E3E3E"/>
<path d="M50.0432 24.1634C46.1496 18.323 50.3363 10.5 57.3556 10.5C64.3748 10.5 68.5615 18.323 64.668 24.1633L57.3556 35.1319L50.0432 24.1634Z" fill="white" stroke="#3E3E3E"/>
<circle cx="57.3583" cy="19.4667" r="4.23333" fill="#899989" stroke="#3E3E3E"/>
</svg>
