<svg width="98" height="98" viewBox="0 0 98 98" fill="none" xmlns="http://www.w3.org/2000/svg">
<path d="M63.2382 32.3736L50.9892 38.6956V32.8179V32.3179H50.4892H44.5V1.5H95.4134V32.3179H69.9567H63.4675H63.3461L63.2382 32.3736Z" stroke="#899989"/>
<line x1="51.0566" y1="6.91895" x2="88.656" y2="6.91895" stroke="#899989"/>
<line x1="51.0566" y1="13.3389" x2="88.656" y2="13.3389" stroke="#899989"/>
<line x1="51.0566" y1="19.7578" x2="88.656" y2="19.7578" stroke="#899989"/>
<line x1="51.0566" y1="26.1777" x2="77.6513" y2="26.1777" stroke="#899989"/>
<circle cx="24.1482" cy="55.1482" r="21.6482" fill="white" stroke="#3E3E3E"/>
<path d="M27.4727 54.041C27.4731 48.1348 36.3341 48.1348 36.3319 54.041" stroke="#3E3E3E"/>
<path d="M11.9688 54.041C11.9692 48.1348 20.8302 48.1348 20.828 54.041" stroke="#3E3E3E"/>
<path d="M33.0098 60.6851C29.6875 66.2222 19.1672 66.2221 15.2912 60.6851" stroke="#3E3E3E"/>
</svg>
