<svg width="170" height="90" viewBox="0 0 170 90" fill="none" xmlns="http://www.w3.org/2000/svg">
<path d="M102.283 51.4142L94.5801 56.6753V40.21H110.55V56.6753L102.847 51.4142L102.565 51.2216L102.283 51.4142Z" fill="#899989" stroke="#3E3E3E"/>
<rect x="46.5" y="58.1221" width="17.8551" height="29.1681" rx="1.5" stroke="#3E3E3E"/>
<path d="M64.3828 62.336C64.3828 62.336 69.0966 63.2787 72.3962 62.336C75.6958 61.3932 79.2783 59.0363 80.4096 53.3798C80.7604 51.6257 80.939 50.3249 81.0746 49.3368C81.3764 47.1386 81.4657 46.4882 82.7665 45.8378C84.652 44.8951 89.6486 46.8748 88.8944 52.9084C88.279 57.8317 87.831 60.3697 87.6015 61.3932H98.1997C100.09 61.3932 101.622 62.9252 101.622 64.8151C101.622 66.7049 100.09 68.2369 98.1997 68.2369C100.09 68.2369 101.622 69.7689 101.622 71.6588C101.622 73.5486 100.09 75.0806 98.1997 75.0806C100.09 75.0806 101.622 76.6126 101.622 78.5024C101.622 80.3923 100.09 81.9243 98.1997 81.9243H98.6885C100.308 81.9243 101.622 83.2374 101.622 84.8573C101.622 86.4771 100.308 87.7903 98.6885 87.7903C98.6885 87.7903 80.4096 88.2617 76.1672 87.7903C71.9248 87.3189 66.9019 83.5613 64.3828 84.0193V62.336Z" stroke="#3E3E3E"/>
<path d="M106.848 5.05082L106.947 5.10269L107.059 5.10735L112.419 5.33054L115.292 9.86055L115.352 9.95505L115.446 10.015L119.976 12.8881L120.199 18.2478L120.204 18.3596L120.256 18.4587L122.742 23.2119L120.256 27.9651L120.204 28.0643L120.199 28.1761L119.976 33.5358L115.446 36.4089L115.352 36.4688L115.292 36.5633L112.419 41.0933L107.059 41.3165L106.947 41.3212L106.848 41.3731L102.095 43.8596L97.3415 41.3731L97.2424 41.3212L97.1306 41.3165L91.7709 41.0933L88.8978 36.5633L88.8379 36.4688L88.7434 36.4089L84.2134 33.5358L83.9902 28.1761L83.9855 28.0643L83.9336 27.9651L81.4471 23.2119L83.9336 18.4587L83.9855 18.3596L83.9902 18.2478L84.2134 12.8881L88.7434 10.015L88.8379 9.95505L88.8978 9.86055L91.7709 5.33054L97.1306 5.10735L97.2424 5.10269L97.3415 5.05082L102.095 2.56428L106.848 5.05082Z" fill="white" stroke="#3E3E3E"/>
<circle cx="102.094" cy="23.2115" r="12.2272" stroke="#3E3E3E"/>
<path d="M102.094 17.2533L103.75 20.5427L103.866 20.7729L104.121 20.812L107.761 21.3708L105.145 23.9626L104.962 24.144L105.003 24.3984L105.597 28.0331L102.323 26.3456L102.094 26.2275L101.865 26.3456L98.5915 28.0331L99.1849 24.3984L99.2264 24.144L99.0433 23.9626L96.4268 21.3708L100.067 20.812L100.322 20.7729L100.438 20.5427L102.094 17.2533Z" fill="#899989" stroke="#3E3E3E"/>
</svg>
