<svg width="98" height="98" viewBox="0 0 98 98" fill="none" xmlns="http://www.w3.org/2000/svg">
<path d="M34.6811 36.4498C34.6811 35.8576 34.775 35.3376 34.9628 34.8898C35.165 34.442 35.4105 34.0592 35.6994 33.7415C35.9883 33.4237 36.3639 33.0626 36.8261 32.6581C37.4472 32.1092 37.9022 31.6326 38.1911 31.2281C38.4944 30.8092 38.6461 30.3037 38.6461 29.7115C38.6461 28.917 38.3355 28.2815 37.7144 27.8048C37.0933 27.3137 36.2411 27.0681 35.1578 27.0681C33.3666 27.0681 31.9872 27.6531 31.0194 28.8231L29.8711 27.9565C31.0989 26.4542 32.8972 25.7031 35.2661 25.7031C36.7828 25.7031 37.9889 26.0426 38.8844 26.7215C39.7944 27.4003 40.2494 28.3176 40.2494 29.4731C40.2494 30.0653 40.1483 30.5926 39.9461 31.0548C39.7583 31.5026 39.52 31.8853 39.2311 32.2031C38.9566 32.5209 38.5883 32.8892 38.1261 33.3081C37.505 33.8715 37.0428 34.377 36.7394 34.8248C36.4361 35.2581 36.2844 35.7998 36.2844 36.4498H34.6811ZM35.4828 41.1081C35.165 41.1081 34.8978 40.9998 34.6811 40.7831C34.4644 40.552 34.3561 40.2848 34.3561 39.9815C34.3561 39.6637 34.4644 39.4037 34.6811 39.2015C34.8978 38.9848 35.165 38.8765 35.4828 38.8765C35.815 38.8765 36.0894 38.9848 36.3061 39.2015C36.5228 39.4037 36.6311 39.6637 36.6311 39.9815C36.6311 40.2848 36.5155 40.552 36.2844 40.7831C36.0678 40.9998 35.8005 41.1081 35.4828 41.1081Z" fill="#3E3E3E"/>
<path d="M61.6811 56.4498C61.6811 55.8576 61.775 55.3376 61.9628 54.8898C62.165 54.442 62.4105 54.0592 62.6994 53.7415C62.9883 53.4237 63.3639 53.0626 63.8261 52.6581C64.4472 52.1092 64.9022 51.6326 65.1911 51.2281C65.4944 50.8092 65.6461 50.3037 65.6461 49.7115C65.6461 48.917 65.3355 48.2815 64.7144 47.8048C64.0933 47.3137 63.2411 47.0681 62.1578 47.0681C60.3666 47.0681 58.9872 47.6531 58.0194 48.8231L56.8711 47.9565C58.0989 46.4542 59.8972 45.7031 62.2661 45.7031C63.7828 45.7031 64.9889 46.0426 65.8844 46.7215C66.7944 47.4003 67.2494 48.3176 67.2494 49.4731C67.2494 50.0653 67.1483 50.5926 66.9461 51.0548C66.7583 51.5026 66.52 51.8853 66.2311 52.2031C65.9566 52.5209 65.5883 52.8892 65.1261 53.3081C64.505 53.8715 64.0428 54.377 63.7394 54.8248C63.4361 55.2581 63.2844 55.7998 63.2844 56.4498H61.6811ZM62.4828 61.1081C62.165 61.1081 61.8978 60.9998 61.6811 60.7831C61.4644 60.552 61.3561 60.2848 61.3561 59.9815C61.3561 59.6637 61.4644 59.4037 61.6811 59.2015C61.8978 58.9848 62.165 58.8765 62.4828 58.8765C62.815 58.8765 63.0894 58.9848 63.3061 59.2015C63.5228 59.4037 63.6311 59.6637 63.6311 59.9815C63.6311 60.2848 63.5155 60.552 63.2844 60.7831C63.0678 60.9998 62.8005 61.1081 62.4828 61.1081Z" fill="#899989"/>
<path d="M16.6194 43.5979L16.7453 43.3622L16.6192 43.1265C15.0053 40.1095 14.09 36.6624 14.09 33C14.09 21.1259 23.7159 11.5 35.59 11.5C47.4641 11.5 57.09 21.1259 57.09 33C57.09 44.8741 47.4641 54.5 35.59 54.5C30.2277 54.5 25.3251 52.5376 21.5591 49.2911L21.3445 49.1061L21.0755 49.1952L12.0304 52.1901L16.6194 43.5979Z" stroke="#3E3E3E"/>
<path d="M29.48 80.4841L29.3766 80.2376L29.1143 80.1866C27.3825 79.8499 25.7061 79.094 24.241 77.9014C19.4918 74.0356 18.7756 67.0518 22.6414 62.3025C26.5071 57.5533 33.491 56.8371 38.2402 60.7029C42.9895 64.5687 43.7057 71.5525 39.8399 76.3018C38.094 78.4467 35.7133 79.7685 33.1885 80.2178L32.9096 80.2675L32.8088 80.5323L31.2351 84.6698L29.48 80.4841Z" stroke="#3E3E3E"/>
<path d="M27.0898 68H34.5898" stroke="#3E3E3E"/>
<path d="M27.5898 73H31.5898" stroke="#3E3E3E"/>
<path d="M81.5595 62.5979L86.1485 71.1901L77.1034 68.1952L76.8344 68.1061L76.6198 68.2911C72.8538 71.5376 67.9512 73.5 62.5889 73.5C51.2294 73.5 41.9272 64.6902 41.1425 53.5306C50.372 50.7249 57.0892 42.1475 57.0892 32C57.0892 31.7367 57.0846 31.4744 57.0757 31.2133C58.8346 30.748 60.6824 30.5 62.5889 30.5C74.463 30.5 84.0889 40.1259 84.0889 52C84.0889 55.6624 83.1736 59.1095 81.5597 62.1265L81.4336 62.3622L81.5595 62.5979Z" stroke="#899989"/>
</svg>
