<svg width="170" height="90" viewBox="0 0 170 90" fill="none" xmlns="http://www.w3.org/2000/svg">
<path d="M126.416 25.0937L110.125 10M126.416 25.0937H110.125V10M126.416 25.0937V70.3748H44V10H110.125" stroke="#3E3E3E"/>
<line x1="56.459" y1="21" x2="93.8339" y2="21" stroke="black"/>
<line x1="56.459" y1="33.458" x2="82.3339" y2="33.458" stroke="black"/>
<path d="M56.9355 51.2086L63.1647 44.9795L63.6439 51.2086L68.9147 44.9795V51.2086H76.1022" stroke="#899989"/>
<rect x="82.8379" y="65.125" width="39.2499" height="7.62498" fill="white" stroke="#3E3E3E"/>
<rect x="86.6699" y="72.792" width="31.5832" height="5.70831" fill="#899989" stroke="#3E3E3E"/>
<mask id="path-7-inside-1_2259_8366" fill="white">
<path fill-rule="evenodd" clip-rule="evenodd" d="M112.044 43.5423C112.044 47.832 109.226 51.4634 105.34 52.6857V60.7923H108.215H111.09L113.965 65.5839H90.9648L93.8398 60.7923H96.7148H99.5898V52.6881C95.6998 51.468 92.8777 47.8347 92.8777 43.5423C92.8777 38.2496 97.1683 33.959 102.461 33.959C107.754 33.959 112.044 38.2496 112.044 43.5423Z"/>
</mask>
<path fill-rule="evenodd" clip-rule="evenodd" d="M112.044 43.5423C112.044 47.832 109.226 51.4634 105.34 52.6857V60.7923H108.215H111.09L113.965 65.5839H90.9648L93.8398 60.7923H96.7148H99.5898V52.6881C95.6998 51.468 92.8777 47.8347 92.8777 43.5423C92.8777 38.2496 97.1683 33.959 102.461 33.959C107.754 33.959 112.044 38.2496 112.044 43.5423Z" fill="white"/>
<path d="M105.34 52.6857L105.04 51.7318L104.34 51.9519V52.6857H105.34ZM105.34 60.7923H104.34V61.7923H105.34V60.7923ZM111.09 60.7923L111.947 60.2778L111.656 59.7923H111.09V60.7923ZM113.965 65.5839V66.5839H115.731L114.822 65.0694L113.965 65.5839ZM90.9648 65.5839L90.1074 65.0694L89.1987 66.5839H90.9648V65.5839ZM93.8398 60.7923V59.7923H93.2736L92.9823 60.2778L93.8398 60.7923ZM99.5898 60.7923V61.7923H100.59V60.7923H99.5898ZM99.5898 52.6881H100.59V51.9537L99.889 51.7339L99.5898 52.6881ZM105.64 53.6396C109.931 52.29 113.044 48.2811 113.044 43.5423H111.044C111.044 47.3828 108.521 50.6367 105.04 51.7318L105.64 53.6396ZM106.34 60.7923V52.6857H104.34V60.7923H106.34ZM105.34 61.7923H108.215V59.7923H105.34V61.7923ZM108.215 61.7923H111.09V59.7923H108.215V61.7923ZM110.232 61.3068L113.107 66.0984L114.822 65.0694L111.947 60.2778L110.232 61.3068ZM113.965 64.5839H90.9648V66.5839H113.965V64.5839ZM91.8223 66.0984L94.6973 61.3068L92.9823 60.2778L90.1074 65.0694L91.8223 66.0984ZM93.8398 61.7923H96.7148V59.7923H93.8398V61.7923ZM96.7148 61.7923H99.5898V59.7923H96.7148V61.7923ZM98.5898 52.6881V60.7923H100.59V52.6881H98.5898ZM91.8777 43.5423C91.8777 48.2842 94.9955 52.2952 99.2905 53.6422L99.889 51.7339C96.4041 50.6409 93.8777 47.3853 93.8777 43.5423H91.8777ZM102.461 32.959C96.616 32.959 91.8777 37.6973 91.8777 43.5423H93.8777C93.8777 38.8019 97.7206 34.959 102.461 34.959V32.959ZM113.044 43.5423C113.044 37.6973 108.306 32.959 102.461 32.959V34.959C107.201 34.959 111.044 38.8019 111.044 43.5423H113.044Z" fill="#3E3E3E" mask="url(#path-7-inside-1_2259_8366)"/>
</svg>
