<svg width="98" height="98" viewBox="0 0 98 98" fill="none" xmlns="http://www.w3.org/2000/svg">
<g clip-path="url(#clip0_2207_8069)">
<path d="M21.2912 21.6629L69.4405 8.1853M29.0125 41.828L73.3099 29.4286C74.3736 29.1309 74.9945 28.0272 74.6968 26.9635L67.6884 1.92589C67.3907 0.862207 66.287 0.241286 65.2233 0.539025L20.926 12.9384C19.8623 13.2362 19.2414 14.3398 19.5391 15.4035L26.5475 40.4411C26.8452 41.5048 27.9489 42.1257 29.0125 41.828Z" stroke="#3E3E3E"/>
<rect x="14.5" y="18.5" width="66" height="51" rx="1.5" fill="white" stroke="#3E3E3E"/>
<path d="M61.5 44C61.5 38.7533 65.7533 34.5 71 34.5H84.5V53.5H71C65.7533 53.5 61.5 49.2467 61.5 44Z" fill="white" stroke="#3E3E3E"/>
<line x1="26" y1="60.5" x2="46" y2="60.5" stroke="#899989"/>
<circle cx="78" cy="44" r="3.5" fill="#899989" stroke="#3E3E3E"/>
</g>
<defs>
<clipPath id="clip0_2207_8069">
<rect width="98" height="98" fill="white"/>
</clipPath>
</defs>
</svg>
