<svg width="170" height="90" viewBox="0 0 170 90" fill="none" xmlns="http://www.w3.org/2000/svg">
<mask id="path-1-inside-1_2239_8344" fill="white">
<path d="M75.2285 37.1943H96.8728V48.7715H75.2285V37.1943Z"/>
</mask>
<path d="M75.2285 38.0198H96.8728V36.3688H75.2285V38.0198ZM96.8728 47.946H75.2285V49.597H96.8728V47.946Z" fill="#3E3E3E" mask="url(#path-1-inside-1_2239_8344)"/>
<mask id="path-3-inside-2_2239_8344" fill="white">
<path d="M96.873 44.2412H110.967V52.7983H96.873V44.2412Z"/>
</mask>
<path d="M96.873 45.0667H110.967V43.4157H96.873V45.0667ZM110.967 51.9728H96.873V53.6238H110.967V51.9728Z" fill="#3E3E3E" mask="url(#path-3-inside-2_2239_8344)"/>
<mask id="path-5-inside-3_2239_8344" fill="white">
<path d="M57.1074 40.7178H74.7249V50.7849H57.1074V40.7178Z"/>
</mask>
<path d="M57.1074 41.5433H74.7249V39.8923H57.1074V41.5433ZM74.7249 49.9594H57.1074V51.6104H74.7249V49.9594Z" fill="#3E3E3E" mask="url(#path-5-inside-3_2239_8344)"/>
<path d="M75.1374 58.195V22.7527L81.9589 14.9567H89.638L96.4595 22.7527V58.1949C96.4595 58.8788 95.9051 59.4332 95.2213 59.4332H76.3756C75.6917 59.4332 75.1374 58.8788 75.1374 58.195Z" stroke="#3E3E3E" stroke-width="0.825503"/>
<rect x="80.6725" y="8.41275" width="10.2483" height="6.22148" rx="1.23826" stroke="#3E3E3E" stroke-width="0.825503"/>
<path d="M96.7799 58.195V35.0483L101.275 29.9108H106.296L110.791 35.0483V58.195C110.791 58.8789 110.237 59.4332 109.553 59.4332H98.0182C97.3343 59.4332 96.7799 58.8789 96.7799 58.195Z" stroke="#3E3E3E" stroke-width="0.825503"/>
<rect x="100.491" y="25.527" width="6.59289" height="3.89529" rx="1.23826" stroke="#3E3E3E" stroke-width="0.825503"/>
<path d="M57.0182 58.1949V28.5388L62.7451 21.9938H69.1731L74.9 28.5388V58.1949C74.9 58.8787 74.3456 59.4331 73.6617 59.4331H58.2565C57.5726 59.4331 57.0182 58.8787 57.0182 58.1949Z" stroke="#3E3E3E" stroke-width="0.825503"/>
<rect x="61.694" y="16.4665" width="8.52812" height="5.1268" rx="1.23826" fill="#899989" stroke="#3E3E3E" stroke-width="0.825503"/>
<rect x="41.4128" y="65.4128" width="87.1745" height="17.1745" rx="8.58725" stroke="#3E3E3E" stroke-width="0.825503"/>
<circle cx="51.0668" cy="73.9398" r="4.62081" stroke="#3E3E3E" stroke-width="0.825503"/>
<circle cx="67.6781" cy="73.9398" r="4.62081" stroke="#3E3E3E" stroke-width="0.825503"/>
<circle cx="84.2894" cy="73.9398" r="4.62081" stroke="#3E3E3E" stroke-width="0.825503"/>
<circle cx="100.899" cy="73.9398" r="4.62081" fill="#899989" stroke="#3E3E3E" stroke-width="0.825503"/>
<circle cx="117.508" cy="73.9398" r="4.62081" stroke="#3E3E3E" stroke-width="0.825503"/>
</svg>
