<svg width="98" height="98" viewBox="0 0 98 98" fill="none" xmlns="http://www.w3.org/2000/svg">
<path d="M32.3027 38.4487V20.4912C39.4527 17.7982 45.0396 16.379 50.6063 16.3332C56.1721 16.2873 61.7602 17.6143 68.9088 20.4832V38.4487H32.3027Z" stroke="#899989"/>
<path fill-rule="evenodd" clip-rule="evenodd" d="M32.9093 28.109V20.9539C46.7015 15.6324 54.502 15.2707 68.3032 20.9539V27.9464L84.2812 19.5863L50.0419 2.44727L17.418 20.0957V31.2048H18.5305V20.6973L32.9093 28.109ZM32.5111 19.922L31.8032 20.1952V26.2916L19.783 20.0738L50.0617 3.69408L81.8537 19.6081L69.4093 26.1194V20.2132L68.7244 19.9312C61.7499 17.0592 56.1958 15.6742 50.5936 15.7211C44.9994 15.768 39.4563 17.2423 32.5111 19.922Z" fill="#899989"/>
<rect x="13.5" y="48.2949" width="65.3636" height="12.2727" stroke="#3E3E3E"/>
<path d="M22.4023 48.3477V60.5143" stroke="#3E3E3E"/>
<path d="M69.4082 48.3477V60.5143" stroke="#3E3E3E"/>
<rect x="20.1367" y="60.4629" width="65.3636" height="15.5909" stroke="#3E3E3E"/>
<path d="M76.0449 60.6543V75.8626" stroke="#3E3E3E"/>
<circle cx="28.4848" cy="68.811" r="3.92424" stroke="#3E3E3E"/>
</svg>
